# xmcd
#
# Track frame offsets: 
#        150
#        11135
#        20265
#        29615
#        40000
#        50622
#        60677
#        70307
#        81267
#        89255
#        100830
#        111570
#        122812
#        134265
#        144562
#        154332
#        164052
#        175522
#        185432
#        196792
#
# Disc length: 2842 seconds
#
# Revision: 3
# Processed by: cddbd v1.5.2PL0 Copyright (c) Steve Scherf et al.
# Submitted via: ExactAudioCopy v0.99pb5
#
DISCID=1a0b1814
DTITLE=The Byrds - The Preflyte Sessions [CD2]
DYEAR=2001
DGENRE=Rock
TTITLE0=The Only Girl I Adore (by The Jet Set)
TTITLE1=Tomorrow Is A Long Ways Away
TTITLE2=You Showed Me
TTITLE3=I Knew I'd Want You
TTITLE4=You Won't Have To Cry
TTITLE5=Mr. Tambourine Man
TTITLE6=Willie Jean (David Crosby)
TTITLE7=Come Back Baby (David Crosby)
TTITLE8=Jack Of Diamonds (David Crosby)
TTITLE9=Get Together (David Crosby)
TTITLE10=She Has A Way (vers. I)
TTITLE11=Here Without You (vers. I)
TTITLE12=For Me Again (vers. I)
TTITLE13=It's No Use (vers. I)
TTITLE14=You Movin' (vers. I)
TTITLE15=Boston (vers. I)
TTITLE16=She Has A Way (vers. II)
TTITLE17=You Movin' (vers. II)
TTITLE18=The Reason Why (vers. I)
TTITLE19=It's No Use (Vers. III)
EXTD=YEAR: 2001
EXTT0=
EXTT1=
EXTT2=
EXTT3=
EXTT4=
EXTT5=
EXTT6=
EXTT7=
EXTT8=
EXTT9=
EXTT10=
EXTT11=
EXTT12=
EXTT13=
EXTT14=
EXTT15=
EXTT16=
EXTT17=
EXTT18=
EXTT19=
PLAYORDER=
